<svg width="150" height="44" viewBox="0 0 150 44" fill="none" xmlns="http://www.w3.org/2000/svg">
<g clip-path="url(#clip0_1681_6685)">
<path d="M47.3591 11.8092H58.966L58.4153 13.7126C58.2458 14.102 58.034 14.4048 57.6951 14.6644C57.3562 14.9239 57.0174 15.0537 56.6361 15.0537H47.8674L46.2577 19.7691H55.1958L54.1368 23.0568H45.1987L42.2758 31.7522H38.082L43.7584 14.5778C44.0126 13.7991 44.5209 13.107 45.1987 12.5879C45.8764 12.0687 46.5966 11.8092 47.3591 11.8092ZM135.046 11.7227H146.653L146.102 13.6261C145.933 14.0154 145.721 14.3183 145.382 14.5778C145.043 14.8374 144.704 14.9672 144.323 14.9672H135.555L133.945 19.6825H142.883L141.824 22.9703H132.886L129.963 31.6656H125.769L131.445 14.4913C131.7 13.7126 132.208 13.0205 132.886 12.5013C133.521 11.9822 134.284 11.7227 135.046 11.7227ZM72.1402 16.9571C73.3263 18.2982 73.6652 20.0719 73.284 22.1916C72.7756 24.8738 71.5048 27.0368 69.5138 28.7239C67.5229 30.4111 65.193 31.2763 62.5666 31.2763C60.2791 31.2763 58.5424 30.5841 57.3139 29.1998C56.0854 27.8155 55.7042 26.0418 56.0854 23.8788C56.5514 21.3264 57.8646 19.2067 59.8979 17.4763C61.9736 15.7891 64.3034 14.9239 66.9298 14.9239C69.2597 14.9239 70.9541 15.6161 72.1402 16.9571ZM67.3958 26.6042C68.709 25.4362 69.5138 24.0518 69.8104 22.4079C70.0645 21.0669 69.8527 19.9854 69.1749 19.1202C68.4972 18.255 67.5229 17.8224 66.2097 17.8224C64.727 17.8224 63.2868 18.3847 62.0159 19.5528C60.7028 20.7208 59.8979 22.0619 59.6014 23.6625C59.3472 25.0036 59.559 26.1283 60.1944 26.9935C60.8722 27.8587 61.8465 28.2913 63.1597 28.2913C64.6847 28.3346 66.125 27.7722 67.3958 26.6042ZM103.148 16.9571C104.292 18.2982 104.673 20.0719 104.25 22.1916C103.741 24.8738 102.471 27.0368 100.437 28.7239C98.4463 30.4111 96.1165 31.2763 93.4901 31.2763C91.2026 31.2763 89.4658 30.5841 88.2374 29.1998C87.0089 27.8155 86.6276 26.0418 87.0513 23.8788C87.5596 21.3264 88.8304 19.2067 90.9061 17.4763C92.9818 15.7891 95.3116 14.9239 97.938 14.9239C100.268 14.9239 101.962 15.6161 103.148 16.9571ZM98.3616 26.6042C99.6748 25.4362 100.48 24.0518 100.776 22.4079C101.03 21.0669 100.819 19.9854 100.141 19.1202C99.463 18.255 98.4887 17.8224 97.1755 17.8224C95.6929 17.8224 94.2526 18.3847 92.9394 19.5528C91.6262 20.7208 90.8214 22.0619 90.5248 23.6625C90.2707 25.0036 90.4825 26.1283 91.1179 26.9935C91.7957 27.8587 92.77 28.2913 94.0832 28.2913C95.6505 28.3346 97.0908 27.7722 98.3616 26.6042ZM107.554 14.8807H108.698C109.291 14.8807 109.799 15.097 110.138 15.5296C110.477 15.9622 110.646 16.4813 110.562 17.1302L109.248 25.9985L117 15.1402H119.118L119.669 26.3446L124.837 16.3082C125.43 15.3998 126.108 14.9239 126.955 14.9239H128.989L120.516 31.3628H116.789L116.28 20.9371L108.782 31.3628H105.139L107.554 14.8807ZM78.6638 23.5327L82.2221 11.939H80.2311C79.8499 11.939 79.4686 12.0687 79.1721 12.3716C78.8332 12.6744 78.5791 13.0637 78.452 13.4963L73.3687 30.0217C73.2416 30.4543 73.2416 30.8004 73.3687 30.9735C73.4958 31.1898 73.7076 31.2763 73.9617 31.2763H76.2069L78.6638 23.5327ZM85.1026 22.2782L88.2797 11.939H86.2888C85.9075 11.939 85.5263 12.0687 85.2297 12.3716C84.8908 12.6744 84.6367 13.0637 84.5096 13.4963L79.4263 30.0217C79.2992 30.4543 79.2992 30.8004 79.4263 30.9735C79.5534 31.1898 79.7652 31.2763 80.0193 31.2763H82.1374L84.9756 22.4079L85.1026 22.2782ZM147.288 24.3546L150 15.4863H148.009C147.627 15.4863 147.288 15.6161 146.95 15.9189C146.611 16.2217 146.399 16.6111 146.272 17.0437L141.909 30.9735C141.782 31.4061 141.824 31.7522 141.951 31.9252C142.078 32.1415 142.29 32.228 142.586 32.228H144.747L147.161 24.4412L147.288 24.3546Z" fill="url(#paint0_linear_1681_6685)"/>
<path d="M24.1881 0C24.1881 0 31.7707 2.16301 34.4394 9.6903C34.4394 9.6903 21.2228 6.79186 24.1881 0ZM29.1867 9.21443C21.9853 6.57556 22.9173 0.173041 22.9173 0.173041C18.0881 1.98997 18.5117 8.60879 18.5117 8.60879L18.2999 22.2358C18.2576 23.5336 17.5374 25.0477 16.8173 26.0859C16.0971 27.1242 15.0805 27.9894 13.8944 28.3787C11.3104 29.2007 9.36176 26.9079 7.03191 26.1292C5.71872 25.6966 4.32081 25.3072 2.9229 25.4803C2.11805 25.5668 1.35555 25.8264 0.677775 26.259C0.635414 26.3022 0.0423609 26.8646 0 26.8646C2.58402 27.5568 3.8972 29.5035 3.8972 29.5035C5.25275 32.7047 8.3451 33.4834 8.3451 33.4834C7.24372 33.9593 7.20136 36.1223 7.20136 37.1173C7.11663 38.891 7.54024 40.7079 6.98955 42.395C6.94719 42.5681 6.48122 43.9957 6.35414 43.9957C9.40412 44.1255 11.6493 40.9242 12.7083 38.4151C13.0472 37.5932 13.1742 36.6847 13.5979 35.8627C13.852 35.3436 14.6569 33.6132 15.3347 33.4834C32.9992 29.6333 29.3561 14.622 29.3561 14.622C29.6103 15.2709 31.3471 16.6985 31.3471 16.6985C33.6769 19.9862 32.4485 22.3656 32.4485 22.3656C34.4394 22.0627 34.9054 17.953 34.9054 17.953C36.0915 11.0314 29.1867 9.21443 29.1867 9.21443ZM10.6326 29.6765C10.2513 29.59 9.87009 29.4602 9.48885 29.2872C9.1076 29.1141 8.76871 28.8978 8.42982 28.6815C8.09093 28.4652 7.79441 28.1624 7.49788 27.9461C6.86247 27.4703 6.14233 27.1674 5.37984 26.9511C4.99859 26.8646 4.61734 26.7781 4.23609 26.6916C3.85484 26.6051 3.43123 26.6051 3.04999 26.5618C3.85484 26.5185 4.6597 26.5618 5.4222 26.7348C6.22705 26.9079 6.98955 27.2107 7.66733 27.6866C8.00621 27.9461 8.26038 28.2057 8.59927 28.4652C8.89579 28.7248 9.23468 28.8978 9.57357 29.1142C9.91245 29.2872 10.2937 29.4602 10.6326 29.59C11.0138 29.7198 11.3951 29.8063 11.7763 29.8063C11.4374 29.8063 11.0562 29.7631 10.6326 29.6765Z" fill="url(#paint1_linear_1681_6685)"/>
</g>
<defs>
<linearGradient id="paint0_linear_1681_6685" x1="150" y1="21.9753" x2="38.082" y2="21.9753" gradientUnits="userSpaceOnUse">
<stop stop-color="#BB5EDB"/>
<stop offset="1" stop-color="#16CAD3"/>
</linearGradient>
<linearGradient id="paint1_linear_1681_6685" x1="17.5205" y1="0" x2="17.5205" y2="44" gradientUnits="userSpaceOnUse">
<stop offset="0.2" stop-color="#BB5EDB"/>
<stop offset="0.8" stop-color="#16CAD3"/>
</linearGradient>
<clipPath id="clip0_1681_6685">
<rect width="150" height="44" fill="white"/>
</clipPath>
</defs>
</svg>
