<svg width="10" height="10" viewBox="0 0 10 10" fill="none" xmlns="http://www.w3.org/2000/svg">
<g id="Frame" clip-path="url(#clip0_2374_2083)">
<path id="Vector" d="M8.71459 7.63708H7.05783V8.82216C7.05783 9.51204 6.33737 9.9996 5.64749 9.9996H1.25709C0.924507 9.99867 0.605815 9.86614 0.370645 9.63097C0.135475 9.3958 0.00294532 9.07711 0.00201416 8.74453V4.35413C0.00201416 3.66425 0.486635 2.94085 1.17651 2.94085H2.34572V1.28349C2.34572 0.57891 2.92385 0.00195312 3.6302 0.00195312H8.71459C9.42153 0.00195312 9.99966 0.57891 9.99966 1.28349V6.35612C9.99811 6.69609 9.86209 7.02162 9.62131 7.26163C9.38053 7.50164 9.05456 7.63661 8.71459 7.63708ZM2.38865 6.66725C2.37751 6.62092 2.36907 6.57399 2.36336 6.52668C2.36219 6.5061 2.35278 6.49022 2.35278 6.46963V6.42435C2.3516 6.40141 2.34572 6.37906 2.34572 6.35612V3.52898H1.17651C0.800109 3.52898 0.62955 3.97772 0.62955 4.35413V8.74453C0.62955 9.12093 0.880682 9.37206 1.25709 9.37206H5.64749C6.02389 9.37206 6.4697 9.19856 6.4697 8.82216V7.6459H3.52904C2.91091 7.6459 2.47687 7.24479 2.38865 6.66725ZM9.35742 1.28349C9.35742 0.898854 9.10041 0.643016 8.71459 0.643016H3.6302C3.24497 0.643016 2.98796 0.898854 2.98796 1.28349V6.35612C2.98796 6.74017 3.24497 6.9966 3.6302 6.9966H8.71459C9.10041 6.9966 9.35742 6.74017 9.35742 6.35612V1.28349ZM6.46617 5.29572H5.87921V4.12181H4.7053V3.53486H5.87921V2.36095H6.46617V3.53486H7.64008V4.12181H6.46617V5.29572Z" fill="#4959EE"/>
</g>
<defs>
<clipPath id="clip0_2374_2083">
<rect width="10" height="10" fill="white"/>
</clipPath>
</defs>
</svg>
