<svg width="16" height="16" viewBox="0 0 16 16" fill="none" xmlns="http://www.w3.org/2000/svg">
<path id="Info Icon" fill-rule="evenodd" clip-rule="evenodd" d="M8 16C3.58 16 0 12.42 0 8C0 3.58 3.58 0 8 0C12.42 0 16 3.58 16 8C16 12.42 12.42 16 8 16ZM8.0373 5.99609H8.9973V5.06609C8.9973 5.04958 9.00337 5.03912 9.00881 5.02973C9.01326 5.02205 9.0173 5.01508 9.0173 5.00609C9.0173 4.99109 9.0123 4.98109 9.0073 4.97109C9.0023 4.96109 8.9973 4.95109 8.9973 4.93609V3.99609H8.0173H7.9973H7.9773H6.9973V4.93609C6.9973 4.95109 6.9948 4.96109 6.9923 4.97109C6.9898 4.98109 6.9873 4.99109 6.9873 5.00609C6.9873 5.01508 6.98933 5.02205 6.99155 5.02973C6.99427 5.03912 6.9973 5.04958 6.9973 5.06609V5.99609H7.9673C7.9723 5.99609 7.9773 5.99859 7.9823 6.00109C7.9873 6.00359 7.9923 6.00609 7.9973 6.00609C8.00145 6.00609 8.00559 6.00438 8.01044 6.00237C8.0173 5.99953 8.02559 5.99609 8.0373 5.99609ZM10.0051 11.5597C10.0051 11.3097 9.83512 11.1097 9.61512 11.1097L9.00512 10.9997V6.99969V6.92969C8.99512 6.95969 8.97512 6.98969 8.89512 6.98969H6.37512C6.16512 6.98969 5.99512 7.18969 5.99512 7.43969C5.99512 7.67969 6.16512 7.87969 6.37512 7.87969L6.99512 7.99969V10.9997L6.37512 11.1097C6.16512 11.1097 5.99512 11.3097 5.99512 11.5597C5.99512 11.7997 6.16512 12.0097 6.37512 12.0097H9.61512C9.83512 12.0097 10.0051 11.7997 10.0051 11.5597Z" fill="white"/>
</svg>
